<?xml version="1.0" standalone="no"?>
        <!DOCTYPE svg PUBLIC "-//W3C//DTD SVG 1.1//EN" 
        "http://www.w3.org/Graphics/SVG/1.1/DTD/svg11.dtd"><svg id="changeColor" fill="#DC7633" xmlns="http://www.w3.org/2000/svg" xmlns:xlink="http://www.w3.org/1999/xlink" width="50" zoomAndPan="magnify" viewBox="0 0 375 374.9999" height="50" preserveAspectRatio="xMidYMid meet" version="1.0"><defs><path id="pathAttribute" d="M 8.238281 8.238281 L 366.738281 8.238281 L 366.738281 366.738281 L 8.238281 366.738281 Z M 8.238281 8.238281 "></path></defs><g><path id="pathAttribute" d="M 187.488281 8.238281 L 204.875 22.945312 L 224.960938 12.152344 L 238.894531 30.136719 L 260.796875 23.734375 L 270.664062 44.203125 L 293.425781 42.46875 L 298.800781 64.535156 L 321.429688 67.542969 L 322.074219 90.238281 L 343.578125 97.863281 L 339.464844 120.191406 L 358.902344 132.09375 L 350.210938 153.085938 L 366.738281 168.75 L 353.84375 187.488281 L 366.738281 206.222656 L 350.210938 221.886719 L 358.902344 242.878906 L 339.464844 254.78125 L 343.578125 277.113281 L 322.074219 284.734375 L 321.429688 307.429688 L 298.800781 310.4375 L 293.425781 332.503906 L 270.664062 330.769531 L 260.796875 351.238281 L 238.894531 344.835938 L 224.960938 362.820312 L 204.875 352.027344 L 187.488281 366.738281 L 170.097656 352.027344 L 150.011719 362.820312 L 136.078125 344.835938 L 114.175781 351.238281 L 104.308594 330.769531 L 81.546875 332.503906 L 76.171875 310.4375 L 53.542969 307.429688 L 52.898438 284.734375 L 31.394531 277.113281 L 35.511719 254.78125 L 16.070312 242.878906 L 24.761719 221.886719 L 8.238281 206.222656 L 21.128906 187.488281 L 8.238281 168.75 L 24.761719 153.085938 L 16.070312 132.09375 L 35.511719 120.191406 L 31.394531 97.863281 L 52.898438 90.238281 L 53.542969 67.542969 L 76.171875 64.535156 L 81.546875 42.46875 L 104.308594 44.203125 L 114.175781 23.734375 L 136.078125 30.136719 L 150.011719 12.152344 L 170.097656 22.945312 L 187.488281 8.238281 " fill-opacity="1" fill-rule="nonzero"></path></g><g id="inner-icon" transform="translate(85, 75)"> <svg xmlns="http://www.w3.org/2000/svg" width="216" height="216" viewBox="0 0 32 32" id="IconChangeColor"> <path d="M29.919 6.163l-4.225 19.925c-0.319 1.406-1.15 1.756-2.331 1.094l-6.438-4.744-3.106 2.988c-0.344 0.344-0.631 0.631-1.294 0.631l0.463-6.556 11.931-10.781c0.519-0.462-0.113-0.719-0.806-0.256l-14.75 9.288-6.35-1.988c-1.381-0.431-1.406-1.381 0.288-2.044l24.837-9.569c1.15-0.431 2.156 0.256 1.781 2.013z" id="mainIconPathAttribute" fill="blue"></path> </svg> </g></svg>