<?xml version="1.0" standalone="no"?>
        <!DOCTYPE svg PUBLIC "-//W3C//DTD SVG 1.1//EN" 
        "http://www.w3.org/Graphics/SVG/1.1/DTD/svg11.dtd"><svg id="changeColor" fill="#DC7633" xmlns="http://www.w3.org/2000/svg" xmlns:xlink="http://www.w3.org/1999/xlink" width="60" zoomAndPan="magnify" viewBox="0 0 375 374.9999" height="60" preserveAspectRatio="xMidYMid meet" version="1.0"><defs><path id="pathAttribute" d="M 8.238281 8.238281 L 366.738281 8.238281 L 366.738281 366.738281 L 8.238281 366.738281 Z M 8.238281 8.238281 "></path></defs><g><path id="pathAttribute" d="M 187.488281 8.238281 L 204.875 22.945312 L 224.960938 12.152344 L 238.894531 30.136719 L 260.796875 23.734375 L 270.664062 44.203125 L 293.425781 42.46875 L 298.800781 64.535156 L 321.429688 67.542969 L 322.074219 90.238281 L 343.578125 97.863281 L 339.464844 120.191406 L 358.902344 132.09375 L 350.210938 153.085938 L 366.738281 168.75 L 353.84375 187.488281 L 366.738281 206.222656 L 350.210938 221.886719 L 358.902344 242.878906 L 339.464844 254.78125 L 343.578125 277.113281 L 322.074219 284.734375 L 321.429688 307.429688 L 298.800781 310.4375 L 293.425781 332.503906 L 270.664062 330.769531 L 260.796875 351.238281 L 238.894531 344.835938 L 224.960938 362.820312 L 204.875 352.027344 L 187.488281 366.738281 L 170.097656 352.027344 L 150.011719 362.820312 L 136.078125 344.835938 L 114.175781 351.238281 L 104.308594 330.769531 L 81.546875 332.503906 L 76.171875 310.4375 L 53.542969 307.429688 L 52.898438 284.734375 L 31.394531 277.113281 L 35.511719 254.78125 L 16.070312 242.878906 L 24.761719 221.886719 L 8.238281 206.222656 L 21.128906 187.488281 L 8.238281 168.75 L 24.761719 153.085938 L 16.070312 132.09375 L 35.511719 120.191406 L 31.394531 97.863281 L 52.898438 90.238281 L 53.542969 67.542969 L 76.171875 64.535156 L 81.546875 42.46875 L 104.308594 44.203125 L 114.175781 23.734375 L 136.078125 30.136719 L 150.011719 12.152344 L 170.097656 22.945312 L 187.488281 8.238281 " fill-opacity="1" fill-rule="nonzero"></path></g><g id="inner-icon" transform="translate(85, 75)"> <svg xmlns="http://www.w3.org/2000/svg" width="216" height="216" fill="currentColor" class="bi bi-linkedin" viewBox="0 0 16 16" id="IconChangeColor"> <path d="M0 1.146C0 .513.526 0 1.175 0h13.65C15.474 0 16 .513 16 1.146v13.708c0 .633-.526 1.146-1.175 1.146H1.175C.526 16 0 15.487 0 14.854V1.146zm4.943 12.248V6.169H2.542v7.225h2.401zm-1.2-8.212c.837 0 1.358-.554 1.358-1.248-.015-.709-.52-1.248-1.342-1.248-.822 0-1.359.54-1.359 1.248 0 .694.521 1.248 1.327 1.248h.016zm4.908 8.212V9.359c0-.216.016-.432.08-.586.173-.431.568-.878 1.232-.878.869 0 1.216.662 1.216 1.634v3.865h2.401V9.25c0-2.22-1.184-3.252-2.764-3.252-1.274 0-1.845.7-2.165 1.193v.025h-.016a5.54 5.54 0 0 1 .016-.025V6.169h-2.4c.03.678 0 7.225 0 7.225h2.4z" id="mainIconPathAttribute" fill="blue"></path> <animateTransform href="#IconChangeColor" attributeType="xml" attributeName="transform" type="rotate" from="0" to="359" dur="2s" repeatCount="indefinite"></animateTransform></svg> </g></svg>